<svg xmlns="http://www.w3.org/2000/svg" width="95" height="60" fill="none"><path fill="#00A596" fill-rule="evenodd" d="M30.813 31.896c-1.416 8.71.211 14.204 3.241 17.026 3.56 3.314 8.715 2.69 12.69.513 5.654-3.096 10.518-9.976 10.518-19.438 0-15.166-12.252-27.46-27.367-27.46-15.082 0-27.413 12.306-27.367 27.46.024 7.84 3.004 15.136 8.544 20.694 8.337 8.369 20.974 10.87 31.823 6.337-11.18 5.617-25.3 3.049-34.138-5.82A29.953 29.953 0 0 1 0 29.998C0 13.431 13.386 0 29.895 0c16.51 0 29.896 13.432 29.896 29.997 0 10.495-5.478 18.17-11.843 21.656-4.956 2.715-11.227 3.203-15.612-.879-3.553-3.309-5.527-9.46-4.06-18.943-.67.518-1.305 1.476-1.806 2.934-.386 1.12-.67 2.294-.95 3.46-.638 2.648-1.265 5.25-3.07 7.064-4.386 4.413-11.836.644-9.578-6.156-6.923-1.764-6.061-10.09.008-11.413 2.497-.544 5.018.332 7.585 1.223.903.314 1.811.63 2.726.886.858.24 4.24.955 4.38-.705.098-1.18-2.746-2.02-3.503-2.17-.997-.198-2.02-.327-3.037-.455-2.695-.338-5.341-.671-7.34-2.266-4.864-3.878-1.968-11.729 5.02-10.242.969-7.1 9.312-7.177 11.304-1.274.817 2.427.234 5.039-.36 7.697-.221.992-.444 1.99-.596 2.988-.14.914-.449 4.201.958 4.354 1.407.151 1.719-3.457 1.742-4.364.021-.928-.01-1.865-.042-2.796-.092-2.719-.183-5.39 1.068-7.618 3.048-5.432 11.233-3.805 10.872 3.354 7.142-.163 8.538 8.091 3.042 10.998-2.261 1.196-4.926 1.03-7.639.861a54.513 54.513 0 0 0-2.473-.116c-.745-.013-4.527.174-4.656 1.439-.183 1.79 3.933 1.418 4.86 1.294.804-.108 1.61-.252 2.41-.396 2.67-.48 5.294-.95 7.673-.024 5.791 2.252 5.353 10.612-1.76 11.275 1.178 7.07-6.766 9.632-10.414 4.587-1.503-2.075-1.72-4.745-1.94-7.464-.1-1.25-.202-2.512-.431-3.73-.278-1.479-.835-2.561-1.516-3.16Zm35.5-10.024c0-.392.135-.725.406-.996.27-.272.602-.408.993-.408h13.765c.391 0 .722.136.993.408.27.271.406.604.406.996 0 .393-.135.725-.406.996-.27.272-.602.408-.993.408H69.111v10.098h7.808c.39 0 .722.136.993.408.27.272.406.604.406.997 0 .392-.136.724-.406.996-.271.271-.602.407-.993.407H69.11v11.82c0 .392-.135.724-.406.996a1.35 1.35 0 0 1-.993.408c-.391 0-.722-.136-.993-.408a1.358 1.358 0 0 1-.406-.996v-26.13Zm13.148 4.822a1.31 1.31 0 0 0-.392.961v25.2c0 .379.13.699.392.96a1.3 1.3 0 0 0 .958.394H93.65a1.3 1.3 0 0 0 .958-.393c.26-.262.391-.583.391-.961s-.13-.699-.391-.96a1.3 1.3 0 0 0-.958-.394H81.768V41.456h7.922a1.3 1.3 0 0 0 .958-.393 1.31 1.31 0 0 0 .391-.96c0-.38-.13-.7-.391-.962a1.3 1.3 0 0 0-.958-.393h-7.922V29.01h11.883a1.3 1.3 0 0 0 .958-.393 1.31 1.31 0 0 0 .391-.961c0-.379-.13-.699-.391-.96a1.3 1.3 0 0 0-.958-.394H80.419a1.3 1.3 0 0 0-.958.393Z" clip-rule="evenodd"/></svg>
