<svg xmlns="http://www.w3.org/2000/svg" width="60" height="60" fill="none">
  <path fill="#00A596" d="M30.919 31.897c-1.422 8.709.211 14.203 3.252 17.025 3.572 3.314 8.743 2.69 12.732.513 5.674-3.096 10.555-9.976 10.555-19.438 0-15.166-12.294-27.46-27.461-27.46-15.134 0-27.506 12.307-27.46 27.46.024 7.84 3.014 15.136 8.573 20.694 8.366 8.369 21.046 10.87 31.932 6.337-11.22 5.617-25.388 3.05-34.255-5.82C3.359 45.78 0 38.28 0 29.998 0 13.431 13.432 0 29.997 0c16.567 0 29.997 13.432 29.997 29.997 0 10.496-5.495 18.17-11.883 21.657-4.972 2.714-11.265 3.203-15.664-.88-3.566-3.308-5.547-9.46-4.076-18.942-.67.518-1.307 1.475-1.81 2.933-1.27 3.667-1.427 7.912-4.034 10.525-4.4 4.412-11.877.643-9.61-6.156-6.948-1.765-6.083-10.092.007-11.414 3.387-.735 6.818 1.124 10.346 2.11.862.24 4.255.954 4.395-.705.098-1.181-2.755-2.021-3.514-2.171-3.656-.722-7.65-.524-10.415-2.72-4.879-3.879-1.973-11.73 5.038-10.243.973-7.1 9.345-7.177 11.343-1.274 1.126 3.333-.397 7.013-.96 10.685-.14.915-.45 4.201.963 4.354 1.41.152 1.724-3.456 1.747-4.364.085-3.633-.655-7.42 1.03-10.414 3.059-5.432 11.27-3.804 10.91 3.354 7.166-.163 8.565 8.092 3.051 10.998-2.957 1.56-6.604.804-10.146.746-.748-.013-4.542.174-4.672 1.438-.183 1.79 3.946 1.418 4.876 1.294 3.497-.467 7.014-1.624 10.118-.42 5.811 2.253 5.37 10.612-1.766 11.275 1.182 7.07-6.79 9.632-10.45 4.588-2.202-3.03-1.65-7.33-2.379-11.194-.28-1.48-.838-2.562-1.52-3.16Z"/>
</svg>
